<?xml version="1.0" standalone="no"?>
<!DOCTYPE svg PUBLIC "-//W3C//DTD SVG 20010904//EN"
 "http://www.w3.org/TR/2001/REC-SVG-20010904/DTD/svg10.dtd">
<svg version="1.0" xmlns="http://www.w3.org/2000/svg"
 width="3396.000000pt" height="3396.000000pt" viewBox="0 0 3396.000000 3396.000000"
 preserveAspectRatio="xMidYMid meet">
<metadata>
Created by potrace 1.11, written by Peter Selinger 2001-2013
</metadata>
<g transform="translate(0.000000,3396.000000) scale(0.100000,-0.100000)"
fill="#000000" stroke="none">
<path d="M22844 33889 c-13 -41 -12 -118 2 -178 7 -32 15 -69 18 -82 15 -80
56 -278 60 -290 3 -8 7 -25 10 -39 2 -14 29 -149 60 -300 30 -151 58 -288 61
-305 3 -16 8 -43 11 -60 13 -71 63 -374 69 -415 3 -25 8 -56 10 -70 10 -54 29
-196 40 -290 3 -25 7 -61 10 -80 2 -19 7 -55 10 -80 3 -25 8 -61 10 -80 5 -37
21 -198 40 -410 9 -96 15 -174 21 -276 3 -54 7 -117 9 -139 23 -314 23 -1256
0 -1495 -2 -19 -6 -84 -10 -143 -3 -60 -8 -123 -10 -140 -3 -18 -7 -70 -10
-117 -4 -47 -8 -96 -10 -110 -2 -14 -7 -56 -10 -95 -4 -38 -8 -76 -10 -85 -1
-8 -6 -44 -10 -80 -3 -36 -8 -76 -10 -90 -2 -14 -6 -43 -9 -65 -15 -116 -38
-269 -51 -340 -7 -44 -16 -96 -19 -115 -11 -70 -66 -348 -96 -490 -17 -80 -33
-154 -36 -166 -14 -71 -123 -484 -177 -674 -265 -916 -700 -1944 -1172 -2770
-45 -79 -72 -126 -113 -200 -14 -25 -67 -114 -119 -199 -51 -84 -93 -155 -93
-157 0 -3 -5 -10 -10 -17 -6 -7 -23 -32 -39 -57 -167 -267 -363 -557 -625
-925 -121 -170 -224 -314 -229 -320 -4 -5 -106 -145 -225 -310 -119 -165 -225
-312 -235 -325 -57 -78 -215 -296 -261 -360 -50 -70 -235 -322 -253 -345 -5
-5 -16 -23 -26 -38 -10 -16 -25 -36 -32 -45 -13 -16 -153 -206 -229 -310 -17
-24 -40 -55 -51 -70 -12 -15 -70 -94 -130 -177 -59 -82 -113 -155 -119 -160
-6 -6 -15 -18 -21 -28 -9 -16 -273 -375 -485 -662 -134 -180 -292 -395 -313
-425 -10 -14 -30 -41 -45 -61 -35 -47 -180 -245 -277 -377 -41 -56 -79 -108
-85 -115 -6 -6 -72 -95 -146 -197 -74 -102 -196 -270 -272 -374 -75 -104 -140
-194 -145 -200 -7 -11 -16 -3 -81 75 -26 32 -146 211 -300 449 -37 58 -91 141
-119 185 -385 593 -392 604 -514 800 -171 274 -253 406 -253 411 0 2 -11 23
-26 45 -14 22 -33 55 -43 72 -10 18 -55 94 -100 171 -44 76 -81 140 -81 142 0
3 -11 21 -23 42 -28 44 -254 448 -322 577 -26 50 -56 104 -65 120 -125 214
-515 1005 -700 1420 -39 88 -77 174 -85 190 -7 17 -25 59 -39 95 -15 36 -31
74 -36 85 -14 32 -91 216 -108 260 -8 22 -24 59 -34 82 -10 23 -18 44 -18 47
0 3 -20 56 -44 118 -105 268 -233 636 -326 938 -23 74 -47 151 -53 170 -14 46
-9 27 -71 265 -90 347 -148 661 -181 965 -4 36 -8 72 -10 80 -2 8 -6 67 -10
130 -3 63 -9 129 -11 145 -8 44 -7 577 0 665 3 41 9 107 12 145 8 119 17 203
29 285 2 14 11 77 20 140 9 63 23 145 31 182 7 37 16 82 19 100 3 18 12 61 20
94 8 34 17 73 19 85 5 23 47 181 80 303 89 323 304 849 456 1116 70 122 245
388 269 410 4 3 20 23 36 45 16 22 37 49 46 60 79 94 114 133 201 223 265 272
547 480 873 642 264 131 533 223 807 274 169 32 163 31 378 52 44 4 437 4 470
0 14 -2 63 -7 110 -10 47 -4 92 -9 100 -11 8 -2 35 -6 60 -9 150 -19 394 -75
570 -131 801 -253 1421 -769 1850 -1540 82 -148 186 -373 252 -550 50 -133
148 -427 148 -444 0 -10 4 -21 9 -26 5 -6 16 -37 24 -70 9 -33 36 -141 61
-240 26 -99 49 -196 52 -215 3 -19 12 -62 19 -95 17 -72 20 -91 40 -215 9 -52
18 -106 20 -120 10 -55 42 -307 49 -385 26 -278 38 -524 38 -785 0 -170 -8
-443 -17 -545 -2 -27 -7 -86 -10 -130 -11 -149 -28 -325 -41 -420 -6 -42 -8
-57 -19 -140 -3 -27 -8 -61 -10 -75 -2 -14 -11 -68 -19 -120 -8 -52 -17 -113
-20 -135 -4 -22 -15 -85 -26 -140 -10 -55 -21 -113 -24 -130 -2 -16 -16 -84
-31 -150 -14 -66 -35 -160 -46 -210 -11 -49 -22 -100 -24 -113 -3 -13 -16 -56
-29 -97 -13 -41 -21 -76 -19 -79 3 -2 17 0 33 6 43 15 415 542 772 1093 70
110 247 406 333 560 379 678 673 1421 720 1820 23 203 21 367 -10 655 -2 19
-7 62 -10 95 -4 33 -13 107 -21 165 -9 58 -17 121 -20 140 -3 19 -9 58 -14 85
-5 28 -12 66 -15 85 -4 19 -10 53 -15 75 -5 22 -11 56 -14 75 -10 61 -17 94
-31 150 -8 30 -17 70 -20 89 -3 19 -8 37 -10 41 -2 3 -6 19 -9 34 -6 34 -70
265 -97 356 -12 36 -22 72 -24 80 -7 30 -94 278 -143 410 -123 331 -325 746
-478 983 -24 37 -44 70 -44 72 0 2 -18 30 -40 62 -22 32 -46 66 -53 77 -55 85
-208 289 -273 366 -259 306 -489 523 -824 778 -182 139 -565 359 -803 463 -40
17 -90 39 -112 49 -362 160 -948 304 -1405 344 -36 4 -90 9 -120 12 -144 13
-562 19 -745 10 -112 -6 -257 -16 -295 -21 -37 -5 -96 -11 -195 -21 -33 -3
-62 -7 -65 -9 -4 -2 -29 -7 -56 -10 -46 -6 -66 -9 -124 -20 -14 -3 -38 -7 -55
-10 -65 -11 -224 -48 -310 -72 -49 -14 -94 -26 -100 -27 -79 -18 -322 -102
-470 -163 -281 -115 -569 -273 -822 -449 -378 -264 -770 -649 -1056 -1039 -37
-49 -70 -95 -75 -101 -5 -5 -41 -57 -79 -115 -252 -374 -521 -895 -702 -1359
-29 -74 -57 -144 -61 -155 -112 -272 -275 -852 -345 -1225 -3 -14 -9 -47 -15
-75 -15 -74 -17 -85 -24 -140 -4 -27 -9 -57 -11 -65 -8 -31 -41 -268 -51 -365
-3 -38 -8 -78 -10 -88 -2 -10 -6 -55 -9 -100 -3 -45 -7 -98 -10 -117 -20 -147
-28 -974 -12 -1200 15 -203 34 -433 42 -500 6 -43 11 -85 20 -170 4 -36 9 -74
11 -85 3 -11 6 -40 9 -65 3 -25 7 -56 10 -70 2 -14 7 -45 10 -70 11 -79 55
-334 81 -463 8 -42 18 -90 21 -105 3 -15 6 -31 7 -37 1 -5 8 -37 15 -70 7 -33
31 -134 53 -225 22 -91 41 -173 43 -182 5 -26 53 -202 75 -280 11 -38 29 -101
41 -140 246 -849 688 -1969 1229 -3113 29 -60 100 -227 100 -233 0 -6 -41 26
-83 65 -23 21 -80 73 -127 114 -47 40 -92 81 -100 89 -9 8 -45 40 -79 70 -35
30 -78 69 -96 85 -17 17 -60 55 -94 85 -35 30 -73 64 -85 75 -12 11 -56 49
-96 85 -41 36 -81 72 -90 80 -9 8 -52 47 -95 85 -44 39 -82 72 -85 75 -3 3
-41 37 -85 75 -44 39 -136 120 -205 181 -108 95 -259 224 -445 381 -82 68
-315 252 -435 343 -61 47 -117 90 -124 95 -6 6 -27 21 -46 35 -19 13 -105 74
-190 136 -136 97 -536 365 -627 420 -18 10 -76 46 -130 79 -54 33 -107 65
-118 71 -11 6 -47 27 -80 46 -438 257 -947 504 -1430 693 -276 108 -704 253
-920 311 -241 64 -258 68 -327 83 -26 6 -73 17 -105 25 -59 15 -425 89 -498
101 -22 3 -58 8 -79 11 -22 3 -43 7 -46 9 -3 2 -33 7 -65 10 -33 4 -69 9 -80
11 -30 6 -349 45 -395 49 -70 6 -199 17 -230 20 -198 20 -929 28 -1135 12
-157 -13 -207 -17 -250 -22 -22 -2 -67 -7 -100 -10 -33 -4 -71 -9 -85 -11 -14
-2 -59 -8 -101 -14 -41 -6 -86 -13 -99 -15 -13 -3 -42 -7 -65 -11 -22 -3 -62
-10 -90 -15 -27 -6 -61 -13 -75 -15 -276 -53 -668 -168 -940 -276 -175 -69
-204 -82 -390 -174 -983 -489 -1763 -1322 -2195 -2344 -137 -325 -260 -764
-301 -1075 -3 -27 -8 -59 -10 -70 -2 -11 -7 -49 -10 -85 -3 -36 -7 -70 -9 -77
-22 -68 -22 -673 0 -828 2 -16 6 -55 10 -85 15 -148 40 -287 90 -510 13 -60
22 -92 62 -230 270 -921 820 -1751 1623 -2449 47 -41 99 -86 115 -100 81 -70
423 -332 555 -425 234 -164 752 -496 774 -496 2 0 34 -18 71 -40 36 -23 76
-45 88 -51 12 -5 42 -21 67 -35 74 -43 467 -239 585 -292 405 -183 918 -374
1265 -472 36 -10 108 -30 160 -44 212 -60 467 -120 770 -181 44 -9 190 -35
225 -40 22 -3 47 -7 55 -10 8 -2 38 -6 65 -10 28 -3 59 -8 70 -10 18 -4 46 -8
130 -21 17 -2 50 -6 75 -9 25 -3 56 -7 70 -9 14 -3 50 -7 80 -11 30 -3 100
-10 155 -16 120 -12 155 -16 260 -24 44 -3 107 -8 140 -10 402 -31 1294 -35
2390 -10 99 2 344 7 545 10 201 4 393 8 428 9 34 1 62 -1 62 -4 0 -5 -86 -57
-322 -195 -228 -133 -516 -303 -668 -393 -96 -58 -195 -116 -220 -130 -25 -14
-75 -45 -113 -69 -37 -24 -70 -43 -72 -43 -3 0 -36 -19 -73 -43 -37 -24 -92
-59 -122 -77 -404 -249 -1043 -694 -1356 -944 -28 -23 -68 -54 -90 -71 -53
-41 -338 -278 -344 -285 -3 -4 -45 -42 -94 -84 -49 -42 -109 -97 -135 -121
-25 -23 -62 -57 -81 -75 -178 -163 -503 -499 -676 -700 -371 -429 -711 -909
-977 -1380 -11 -19 -40 -71 -65 -115 -25 -44 -58 -102 -73 -130 -14 -27 -39
-72 -54 -100 -35 -63 -236 -465 -263 -525 -11 -25 -41 -92 -66 -150 -26 -58
-51 -114 -56 -125 -28 -62 -131 -331 -182 -475 -84 -241 -181 -596 -232 -850
-23 -118 -28 -145 -41 -237 -3 -21 -8 -49 -10 -63 -10 -55 -24 -169 -39 -315
-26 -245 -27 -872 -2 -1025 3 -14 7 -56 11 -93 3 -37 8 -76 10 -85 1 -9 6 -39
9 -67 43 -333 156 -749 289 -1065 5 -14 11 -30 12 -36 2 -6 36 -80 78 -165 82
-170 188 -356 280 -494 55 -82 193 -273 207 -285 3 -3 25 -30 50 -60 157 -194
385 -422 620 -619 173 -144 153 -128 306 -242 528 -391 1106 -668 1693 -810
177 -42 375 -77 536 -93 28 -3 82 -9 120 -13 93 -10 583 -10 712 0 119 9 191
17 373 44 68 9 376 73 455 93 44 11 89 22 100 25 54 13 293 87 370 114 33 12
67 24 75 26 22 4 278 105 395 155 400 169 835 400 1199 638 186 121 562 392
586 422 3 3 14 13 26 21 43 29 221 180 364 308 143 128 511 499 641 646 245
278 344 402 598 745 140 190 380 560 548 845 402 686 759 1490 1028 2315 26
80 54 165 62 190 35 106 138 448 148 490 2 8 23 80 45 159 23 80 43 152 45
160 2 9 17 67 35 130 17 62 33 122 35 132 2 11 6 22 8 27 3 4 8 23 11 42 3 19
13 60 21 90 9 30 17 62 19 70 3 8 32 128 66 265 33 138 67 277 75 310 35 146
75 319 79 339 3 11 14 57 26 101 12 44 23 85 24 92 5 32 15 18 29 -44 34 -144
77 -323 107 -453 47 -199 120 -501 130 -535 8 -27 39 -146 45 -170 14 -65 142
-528 190 -690 133 -446 241 -774 366 -1118 69 -189 210 -551 254 -652 7 -16
41 -95 75 -175 308 -714 685 -1372 1129 -1970 73 -99 280 -362 295 -375 6 -5
29 -32 51 -60 22 -27 56 -68 76 -90 20 -22 80 -89 134 -150 202 -224 557 -567
810 -780 32 -27 75 -64 94 -81 20 -17 92 -75 161 -128 69 -54 132 -103 140
-109 82 -66 572 -407 585 -407 2 0 30 -17 62 -38 66 -42 60 -38 206 -127 60
-36 110 -65 113 -65 2 0 21 -11 42 -23 69 -44 312 -175 432 -232 147 -72 526
-231 570 -240 8 -2 40 -12 70 -24 125 -46 465 -140 570 -157 19 -3 38 -8 41
-9 5 -4 63 -14 164 -31 180 -30 224 -35 405 -51 178 -15 753 -8 855 11 11 2
52 7 90 11 39 4 79 9 90 11 11 2 36 6 55 9 42 6 78 12 146 26 28 5 64 12 80
15 16 3 67 14 114 25 47 11 94 22 105 25 95 20 369 105 575 179 174 63 505
220 705 335 319 183 638 424 890 669 183 179 331 344 455 510 14 18 34 45 46
59 170 216 424 672 549 985 106 268 207 611 250 852 3 17 7 41 10 55 10 53 34
218 40 270 3 30 8 71 10 90 26 219 26 829 0 980 -2 14 -7 50 -10 80 -10 93
-15 132 -31 225 -8 50 -17 106 -20 125 -3 19 -19 98 -35 175 -245 1161 -723
2227 -1439 3215 -97 133 -362 471 -445 565 -14 17 -36 41 -47 55 -22 26 -155
176 -218 245 -20 22 -151 155 -291 295 -240 241 -329 325 -545 515 -6 6 -36
30 -65 55 -30 25 -72 61 -94 81 -206 183 -757 594 -1157 861 -117 78 -245 163
-285 190 -39 26 -73 48 -76 48 -3 0 -41 24 -86 53 -206 133 -818 499 -1071
639 -25 14 -130 74 -235 133 -104 59 -215 121 -245 137 -30 17 -57 33 -60 35
-5 5 215 -3 361 -12 321 -20 1072 -38 1584 -38 484 0 799 7 1190 27 144 8 348
22 465 32 36 3 83 7 105 9 54 3 182 15 225 20 19 2 60 7 90 10 81 8 152 17
175 21 11 2 43 6 70 9 28 2 68 7 90 10 22 4 51 8 65 10 32 4 110 17 130 20 8
1 35 6 60 9 25 4 79 14 120 21 41 8 89 17 105 19 75 13 251 50 365 77 69 17
133 32 143 34 10 2 26 6 35 9 9 2 78 21 152 41 203 56 511 160 780 265 25 10
81 31 125 48 471 178 1129 500 1590 778 293 177 664 433 850 586 11 9 54 44
95 78 81 67 90 74 195 165 159 136 477 449 605 595 41 47 77 87 80 90 3 3 35
41 71 85 282 344 522 729 702 1125 49 107 147 357 147 373 0 7 3 17 8 21 4 4
7 11 8 14 0 4 15 52 33 107 18 55 35 111 37 125 3 14 9 36 14 50 24 64 94 398
105 500 4 30 8 61 10 68 3 7 7 40 11 75 3 34 8 73 10 87 2 14 7 86 11 160 15
286 4 610 -27 815 -5 33 -12 80 -15 105 -31 240 -117 573 -219 854 -201 550
-524 1087 -941 1561 -160 182 -430 427 -654 593 -85 62 -301 205 -376 247
-240 136 -413 219 -640 310 -373 149 -919 292 -1305 340 -30 4 -62 9 -70 10
-8 1 -44 6 -80 10 -36 4 -76 9 -90 11 -14 2 -55 6 -91 9 -37 3 -83 8 -102 10
-33 4 -143 12 -307 20 -102 6 -625 6 -730 0 -184 -9 -373 -24 -510 -40 -19 -2
-64 -7 -100 -11 -36 -3 -72 -7 -80 -9 -15 -3 -90 -13 -145 -19 -25 -3 -184
-30 -300 -51 -301 -55 -664 -140 -975 -230 -377 -108 -983 -327 -1305 -470
-124 -55 -270 -122 -320 -148 -33 -17 -62 -31 -65 -32 -22 -2 -541 -286 -640
-349 -19 -13 -89 -56 -155 -96 -150 -92 -439 -282 -443 -292 -2 -5 -8 -8 -13
-8 -6 0 -27 -13 -47 -28 -20 -16 -93 -69 -162 -117 -250 -178 -717 -538 -1000
-774 -41 -34 -82 -67 -90 -74 -80 -64 -633 -539 -655 -562 -5 -6 -48 -45 -95
-86 -46 -40 -91 -81 -100 -89 -9 -8 -51 -46 -94 -85 -115 -103 -115 -103 -212
-191 -115 -105 -160 -143 -149 -124 5 8 25 40 46 70 20 30 106 161 191 290 85
129 242 368 350 530 107 162 243 372 302 465 60 94 123 193 141 220 71 109
345 562 345 570 0 2 26 47 58 102 32 54 80 139 107 188 26 50 51 95 55 100 6
9 54 99 158 297 23 42 49 92 58 110 10 18 19 35 19 38 1 3 53 111 117 240 116
236 260 548 337 735 23 55 53 125 66 155 171 396 398 1045 545 1560 50 172
157 593 166 647 3 21 8 41 9 44 8 12 110 506 120 581 3 24 18 108 29 163 2 11
7 42 10 69 4 27 9 52 11 55 2 4 6 35 10 71 3 35 8 67 10 70 2 3 6 34 10 70 3
35 8 67 10 70 1 3 6 37 9 75 4 39 9 77 11 85 2 8 7 44 10 80 3 36 8 81 10 100
8 63 15 134 20 205 3 39 8 88 10 111 2 22 7 88 10 145 4 57 8 127 10 154 18
244 24 913 11 1205 -12 273 -23 455 -31 520 -2 19 -7 75 -10 124 -4 50 -8 97
-10 106 -2 9 -6 52 -10 96 -3 43 -8 90 -10 104 -2 14 -7 50 -10 80 -3 30 -8
66 -10 80 -2 14 -7 49 -10 79 -4 30 -8 61 -10 70 -1 9 -6 39 -9 66 -16 119
-82 497 -110 635 -3 14 -11 50 -17 80 -5 30 -14 69 -19 85 -5 17 -12 44 -14
60 -3 17 -24 104 -46 195 -145 586 -335 1139 -593 1725 -38 86 -215 439 -235
469 l-20 28 -8 -23z m-17074 -11983 c225 -10 300 -15 515 -41 17 -2 57 -7 90
-11 33 -4 65 -8 70 -9 6 -1 33 -5 60 -9 43 -7 188 -32 235 -41 71 -14 185 -39
257 -56 49 -11 96 -22 106 -24 83 -18 565 -166 632 -194 11 -5 92 -37 180 -71
223 -87 369 -153 604 -273 466 -236 928 -537 1420 -925 236 -186 420 -336 661
-542 145 -124 167 -143 426 -375 19 -18 153 -140 238 -219 367 -338 1011 -987
1402 -1412 139 -151 223 -242 244 -265 14 -15 54 -59 90 -99 36 -40 76 -85 90
-100 14 -15 39 -43 55 -61 17 -19 82 -93 145 -164 63 -72 144 -164 180 -205
36 -41 71 -81 78 -89 13 -14 134 -157 322 -381 58 -69 180 -215 270 -325 91
-110 172 -209 182 -220 182 -220 242 -295 300 -372 37 -51 68 -94 68 -96 0 -2
-6 -4 -12 -5 -7 0 -26 -3 -43 -7 -45 -9 -909 -171 -1070 -200 -16 -3 -102 -19
-190 -35 -88 -16 -173 -32 -190 -35 -16 -2 -40 -7 -51 -9 -12 -2 -39 -7 -60
-11 -78 -12 -100 -16 -149 -25 -27 -5 -63 -12 -80 -14 -113 -18 -163 -26 -181
-30 -12 -2 -39 -7 -60 -11 -22 -3 -50 -7 -64 -10 -14 -2 -43 -6 -65 -10 -48
-7 -63 -9 -185 -29 -52 -8 -113 -18 -135 -21 -23 -3 -50 -7 -60 -9 -11 -2 -45
-7 -75 -11 -30 -4 -62 -9 -70 -10 -8 -1 -40 -6 -70 -10 -30 -4 -62 -9 -71 -10
-9 -2 -40 -6 -70 -10 -30 -3 -67 -8 -84 -12 -16 -3 -41 -7 -55 -8 -39 -4 -282
-35 -310 -40 -14 -2 -47 -6 -75 -9 -46 -6 -70 -9 -180 -22 -22 -3 -58 -7 -80
-9 -64 -6 -159 -17 -175 -20 -8 -2 -51 -6 -95 -10 -44 -3 -91 -8 -105 -10 -14
-2 -56 -6 -95 -10 -38 -3 -88 -8 -110 -10 -52 -5 -156 -15 -225 -20 -30 -2
-82 -7 -115 -10 -75 -7 -155 -13 -265 -20 -47 -3 -114 -7 -150 -10 -114 -7
-282 -17 -370 -20 -563 -22 -622 -23 -1075 -24 -465 -1 -770 9 -1065 34 -62 6
-94 9 -195 20 -25 3 -66 7 -92 10 -160 18 -375 52 -628 100 -78 15 -335 80
-460 116 -734 211 -1373 500 -1929 874 -122 82 -387 276 -416 305 -3 3 -32 27
-65 55 -606 504 -993 1034 -1208 1651 -56 163 -117 390 -132 498 -2 12 -8 55
-14 96 -7 41 -14 109 -17 150 -3 41 -7 86 -10 100 -11 61 -4 358 11 510 5 51
40 273 50 319 30 133 70 270 113 386 14 39 27 75 28 80 1 6 23 57 49 115 210
469 517 862 933 1194 294 234 617 411 977 536 111 38 298 93 356 104 13 2 53
11 89 19 36 9 85 18 110 22 25 3 68 10 95 15 28 5 70 12 95 14 130 14 158 17
185 21 17 3 100 7 185 11 85 3 156 7 157 8 3 3 255 -3 393 -8z m23035 0 c39
-4 90 -9 115 -12 25 -3 65 -7 90 -9 49 -5 107 -13 155 -21 17 -3 45 -7 62 -10
138 -18 582 -132 678 -174 11 -5 56 -22 100 -39 129 -48 319 -137 405 -190 19
-11 42 -24 50 -28 8 -3 59 -35 113 -70 429 -277 780 -645 1039 -1089 43 -73
154 -296 164 -327 3 -12 13 -38 21 -57 28 -65 32 -75 61 -160 59 -168 118
-414 137 -569 4 -30 8 -61 10 -71 23 -119 23 -589 1 -706 -4 -18 -8 -50 -21
-149 -6 -44 -37 -185 -61 -274 -120 -452 -344 -880 -663 -1266 -152 -183 -386
-417 -601 -600 -58 -50 -107 -92 -110 -96 -3 -3 -43 -34 -90 -69 -47 -35 -89
-68 -95 -72 -106 -85 -432 -299 -590 -388 -213 -120 -446 -234 -655 -321 -52
-22 -104 -44 -115 -49 -18 -7 -51 -20 -65 -25 -3 -1 -16 -6 -30 -12 -120 -50
-601 -204 -715 -229 -33 -7 -72 -17 -86 -23 -14 -5 -39 -12 -55 -15 -16 -3
-76 -16 -134 -29 -95 -22 -259 -55 -350 -71 -19 -3 -45 -8 -56 -10 -24 -5 -73
-13 -131 -22 -21 -3 -49 -7 -62 -9 -13 -2 -45 -7 -70 -11 -25 -3 -55 -7 -67
-9 -11 -2 -52 -6 -90 -10 -38 -4 -80 -9 -94 -11 -14 -1 -56 -6 -95 -9 -38 -3
-83 -8 -100 -10 -16 -2 -79 -7 -140 -10 -60 -4 -126 -8 -145 -10 -253 -23
-1028 -23 -1525 0 -285 13 -345 16 -405 20 -36 3 -103 7 -150 10 -214 12 -259
15 -315 20 -33 2 -94 7 -135 10 -41 3 -100 8 -130 11 -30 3 -84 7 -120 10 -36
2 -81 6 -100 8 -19 3 -69 8 -110 11 -96 9 -144 13 -200 19 -25 3 -74 8 -110
11 -36 4 -76 8 -90 10 -14 2 -52 6 -85 10 -125 12 -156 15 -183 19 -15 3 -52
7 -82 11 -62 7 -75 8 -250 30 -137 17 -192 24 -230 30 -14 2 -50 7 -80 10 -30
3 -62 8 -70 10 -8 2 -37 6 -65 10 -63 8 -98 13 -210 30 -49 8 -110 17 -135 20
-25 3 -70 9 -100 15 -30 5 -73 12 -95 15 -22 3 -51 7 -65 10 -14 2 -43 6 -65
10 -22 3 -146 24 -275 46 -129 22 -246 42 -260 44 -14 2 -63 10 -110 19 -47 9
-101 18 -120 21 -19 3 -55 9 -80 15 -38 8 -105 20 -247 46 -13 2 -33 6 -45 8
-13 3 -48 10 -78 15 -30 6 -64 13 -75 15 -133 27 -296 58 -324 62 -20 3 -39 8
-44 11 -4 2 -20 6 -35 9 -15 2 -70 13 -122 24 -52 11 -106 22 -120 24 -14 2
-47 10 -75 16 -27 7 -54 13 -60 14 -57 12 -57 13 -18 74 43 67 429 546 670
832 11 14 72 86 134 160 63 74 123 146 135 160 12 14 95 111 185 215 89 105
183 213 208 240 48 53 154 172 191 215 12 14 36 41 53 60 18 19 77 85 132 145
55 61 104 115 110 121 5 6 53 58 106 115 53 57 111 120 129 139 120 131 417
437 656 675 296 296 527 518 798 766 101 93 113 103 147 134 19 16 75 66 124
110 84 75 387 336 500 431 152 127 193 160 325 265 204 162 357 277 560 417
96 67 180 125 186 129 5 5 19 13 30 20 10 7 87 54 169 106 177 111 238 147
365 217 103 57 434 225 515 260 28 13 73 33 100 45 100 45 399 160 525 201
167 55 199 64 405 118 179 46 408 95 565 121 19 3 60 10 90 15 30 5 73 12 95
15 23 3 50 7 60 9 11 2 49 7 85 11 36 4 72 8 80 10 13 2 74 8 205 20 17 2 86
6 155 10 69 4 126 9 128 10 6 5 493 -3 557 -9z m-10353 -9002 c51 -20 122 -47
158 -61 36 -14 74 -29 85 -34 11 -5 85 -34 165 -64 80 -31 215 -84 300 -118
85 -34 160 -62 165 -64 10 -2 259 -104 300 -122 11 -5 72 -30 135 -56 63 -26
134 -56 157 -66 23 -10 45 -19 48 -19 3 0 25 -9 49 -20 24 -10 139 -61 257
-111 291 -125 354 -152 424 -183 33 -15 69 -31 80 -36 11 -5 52 -23 90 -41 39
-17 142 -64 230 -104 88 -40 194 -88 235 -108 41 -20 145 -69 230 -109 189
-89 862 -424 1020 -509 157 -83 297 -158 345 -186 22 -12 54 -29 70 -37 17 -8
57 -30 90 -49 33 -19 96 -54 140 -79 118 -66 153 -86 229 -131 38 -22 82 -48
98 -56 151 -82 716 -435 1000 -626 275 -186 697 -500 804 -600 6 -5 30 -26 54
-45 23 -19 55 -46 70 -60 15 -14 61 -54 101 -90 156 -137 420 -401 554 -552
137 -154 310 -366 390 -478 22 -30 42 -57 46 -60 3 -3 58 -84 121 -180 182
-275 355 -587 486 -875 83 -183 88 -195 145 -340 96 -245 174 -498 226 -735
11 -52 23 -110 26 -129 3 -19 7 -37 9 -40 2 -3 7 -33 11 -66 3 -32 8 -62 10
-65 2 -3 6 -41 10 -85 4 -44 9 -82 10 -85 2 -3 7 -59 11 -125 16 -256 5 -558
-26 -745 -5 -30 -12 -73 -16 -94 -12 -80 -74 -315 -112 -427 -128 -376 -342
-752 -601 -1053 -124 -144 -388 -391 -520 -487 -308 -222 -570 -358 -899 -468
-134 -45 -350 -97 -472 -115 -241 -34 -320 -40 -545 -40 -170 -1 -389 9 -404
18 -3 2 -33 6 -66 10 -33 3 -96 12 -140 20 -67 12 -119 23 -285 61 -16 3 -80
23 -205 62 -290 92 -646 261 -949 450 -541 338 -1061 794 -1487 1304 -204 243
-409 531 -581 812 -43 71 -78 131 -78 134 0 3 -8 17 -18 31 -69 99 -308 582
-414 837 -51 121 -174 446 -207 545 -105 312 -249 781 -307 1000 -8 30 -39
145 -69 255 -29 110 -61 232 -70 270 -9 39 -21 84 -26 100 -7 24 -62 256 -84
352 -92 408 -177 820 -241 1168 -3 17 -12 66 -20 110 -8 44 -19 105 -24 135
-5 30 -18 107 -29 170 -25 149 -29 168 -35 210 -3 19 -7 44 -10 55 -2 11 -7
43 -10 70 -7 52 -30 200 -46 295 -5 30 -12 80 -15 110 -3 30 -8 62 -10 70 -2
8 -7 40 -10 70 -3 30 -8 62 -10 70 -2 8 -7 38 -10 65 -3 28 -7 61 -10 75 -2
14 -6 48 -10 75 -3 28 -8 61 -10 75 -2 14 -6 48 -9 75 -4 28 -8 61 -11 75 -2
14 -7 50 -10 81 -3 31 -7 65 -9 75 -2 11 -7 50 -11 87 -3 37 -8 76 -10 85 -1
9 -6 44 -9 77 -4 33 -9 74 -11 90 -2 17 -9 75 -15 130 -6 55 -13 114 -15 130
-2 17 -7 59 -10 95 -3 36 -8 79 -10 95 -2 17 -6 57 -10 90 -3 33 -8 74 -10 90
-2 17 -6 66 -10 110 -3 44 -8 94 -10 111 -2 17 -7 71 -10 120 -4 49 -8 105
-10 124 -2 19 -7 78 -11 130 -3 52 -8 98 -11 103 -8 14 17 7 109 -29z m-2826
-1 c-5 -27 -9 -56 -21 -188 -3 -33 -8 -76 -10 -95 -2 -19 -7 -64 -10 -100 -3
-36 -8 -81 -10 -100 -2 -19 -7 -64 -10 -100 -3 -36 -8 -76 -10 -90 -2 -14 -6
-59 -10 -100 -4 -41 -8 -86 -10 -100 -2 -14 -6 -56 -10 -95 -3 -38 -8 -81 -10
-95 -2 -14 -6 -52 -10 -85 -6 -60 -11 -108 -20 -175 -2 -19 -7 -60 -10 -90 -3
-30 -10 -86 -15 -125 -5 -38 -12 -95 -15 -125 -3 -30 -7 -62 -10 -70 -2 -8 -6
-42 -10 -75 -3 -33 -8 -67 -10 -75 -2 -8 -7 -46 -10 -85 -4 -38 -8 -72 -10
-75 -1 -3 -6 -30 -9 -60 -4 -30 -8 -66 -11 -80 -2 -14 -13 -94 -25 -178 -12
-84 -23 -160 -24 -170 -2 -9 -7 -37 -10 -62 -16 -105 -28 -182 -46 -290 -10
-63 -22 -137 -25 -165 -4 -27 -10 -66 -15 -85 -4 -19 -11 -57 -15 -83 -3 -27
-8 -59 -11 -70 -2 -12 -11 -62 -20 -112 -8 -49 -17 -99 -19 -110 -6 -32 -54
-288 -59 -315 -2 -14 -7 -36 -10 -50 -3 -14 -8 -38 -11 -55 -17 -92 -25 -133
-30 -155 -3 -14 -8 -38 -10 -55 -3 -16 -8 -37 -10 -45 -2 -8 -6 -26 -9 -40 -6
-29 -32 -154 -40 -190 -3 -14 -8 -38 -12 -55 -64 -312 -295 -1236 -360 -1436
-8 -25 -16 -54 -19 -65 -18 -84 -220 -716 -285 -896 -51 -139 -142 -372 -168
-428 -11 -25 -34 -79 -52 -120 -18 -41 -53 -118 -78 -170 -25 -52 -46 -97 -46
-100 -3 -15 -156 -304 -226 -425 -27 -48 -50 -89 -50 -91 0 -1 -39 -65 -86
-141 -389 -620 -834 -1134 -1371 -1580 -122 -102 -358 -282 -443 -338 -25 -17
-49 -34 -55 -38 -15 -12 -146 -97 -150 -97 -2 0 -31 -18 -64 -40 -33 -22 -62
-40 -65 -40 -3 0 -31 -15 -63 -34 -88 -51 -270 -144 -348 -178 -38 -16 -88
-38 -110 -48 -38 -18 -178 -70 -295 -110 -52 -18 -269 -79 -335 -95 -136 -32
-369 -68 -531 -82 -169 -14 -589 -8 -679 11 -11 2 -42 7 -70 10 -173 22 -538
121 -670 181 -16 7 -55 23 -85 35 -84 33 -323 158 -438 231 -99 61 -273 187
-378 274 -75 62 -323 308 -384 382 -30 36 -60 71 -65 77 -22 23 -144 195 -199
279 -210 323 -378 745 -439 1107 -13 73 -18 108 -21 140 -2 19 -8 64 -12 100
-17 132 -8 704 11 795 3 11 7 40 10 65 7 63 14 104 31 193 9 42 18 90 20 105
15 86 92 369 136 497 97 284 202 530 353 830 260 514 522 907 874 1310 185
211 414 442 617 620 43 38 81 72 84 76 3 3 61 52 130 108 69 57 134 111 145
120 44 36 275 210 360 271 50 36 92 67 95 70 11 11 309 211 435 292 39 25 102
65 140 90 53 34 399 247 535 328 175 104 623 359 790 447 36 20 88 48 115 63
230 127 621 326 1000 510 259 126 370 177 885 413 30 13 114 50 185 82 72 31
148 65 170 75 22 9 69 30 105 45 36 15 89 38 118 51 29 13 55 24 58 24 3 0 31
12 62 26 31 14 66 29 77 34 126 53 299 124 480 198 121 49 229 92 240 97 11 4
25 9 30 11 6 1 28 10 50 20 55 23 353 141 560 220 94 36 190 74 215 83 44 18
79 28 130 38 13 2 27 6 29 9 13 13 22 1 17 -23z"/>
</g>
</svg>
